<svg xmlns="http://www.w3.org/2000/svg" viewBox="0 0 512 512" role="img" aria-label="28B8$09">
  <defs>
    <linearGradient id="g" x1="0%" y1="0%" x2="100%" y2="100%">
      <stop offset="0%" style="stop-color:#22c55e"/>
      <stop offset="100%" style="stop-color:#15803d"/>
    </linearGradient>
  </defs>
  <circle cx="256" cy="256" r="240" fill="url(#g)"/>
  <path fill="#ecfdf5" d="M256 120c-8 88-72 152-152 168 16-80 80-144 152-168zm0 0c72 24 136 88 152 168-80-16-144-80-152-168z"/>
  <path fill="#bbf7d0" opacity="0.9" d="M256 140c-50 42-82 98-88 168 56-20 100-64 120-120 20 56 64 100 120 120-6-70-38-126-88-168-10 38-32 70-62 92-30-22-52-54-62-92z"/>
</svg>
